name rise30.8019peak61.5557fall86.2505.mot
datacolumns 19
datarows 30
range 7.99830400000000 8.04663700000000
endheader
time	ground_force1_vx	ground_force1_vy	ground_force1_vz	ground_force1_px	ground_force1_py	ground_force1_pz	ground_force2_vx	ground_force2_vy	ground_force2_vz	ground_force2_px	ground_force2_py	ground_force2_pz	ground_torque1_x	ground_torque1_y	ground_torque1_z	ground_torque2_x	ground_torque2_y	ground_torque2_z	
7.99830400000000	-42.34824900000000	778.49697900000001	48.07402100000000	0.02138300000000	0.00000000000000	0.09442800000000	0.00000000000000	0.00000000000000	0.00000000000000	0.00000000000000	0.00000000000000	0.00000000000000	0.00000000000000	10.94197400000000	0.00000000000000	0.00000000000000	0.00000000000000	0.00000000000000	
7.99998000000000	-42.51077300000000	776.29352600000004	47.76791500000000	0.02069400000000	0.00000000000000	0.09439800000000	0.00000000000000	0.00000000000000	0.00000000000000	0.00000000000000	0.00000000000000	0.00000000000000	0.00000000000000	10.86675200000000	0.00000000000000	0.00000000000000	0.00000000000000	0.00000000000000	
8.00164800000000	-42.68854600000000	774.05577100000005	47.44549600000000	0.02000600000000	0.00000000000000	0.09436400000000	0.00000000000000	0.00000000000000	0.00000000000000	0.00000000000000	0.00000000000000	0.00000000000000	0.00000000000000	10.79608000000000	0.00000000000000	0.00000000000000	0.00000000000000	0.00000000000000	
8.00330800000000	-42.88236300000000	771.78521300000000	47.10704900000000	0.01932000000000	0.00000000000000	0.09432400000000	0.00000000000000	0.00000000000000	0.00000000000000	0.00000000000000	0.00000000000000	0.00000000000000	0.00000000000000	10.73013400000000	0.00000000000000	0.00000000000000	0.00000000000000	0.00000000000000	
8.00497000000000	-43.09299900000000	769.48320899999999	46.75287400000000	0.01863400000000	0.00000000000000	0.09428100000000	0.00000000000000	0.00000000000000	0.00000000000000	0.00000000000000	0.00000000000000	0.00000000000000	0.00000000000000	10.66908000000000	0.00000000000000	0.00000000000000	0.00000000000000	0.00000000000000	
8.00663700000000	-43.32120600000000	767.15096600000004	46.38328900000000	0.01794900000000	0.00000000000000	0.09423200000000	0.00000000000000	0.00000000000000	0.00000000000000	0.00000000000000	0.00000000000000	0.00000000000000	0.00000000000000	10.61307700000000	0.00000000000000	0.00000000000000	0.00000000000000	0.00000000000000	
8.00830800000000	-43.56770400000000	764.78952900000002	45.99862500000000	0.01726500000000	0.00000000000000	0.09417800000000	0.00000000000000	0.00000000000000	0.00000000000000	0.00000000000000	0.00000000000000	0.00000000000000	0.00000000000000	10.56227100000000	0.00000000000000	0.00000000000000	0.00000000000000	0.00000000000000	
8.00999600000000	-43.83318500000000	762.39977599999997	45.59922700000000	0.01658200000000	0.00000000000000	0.09412000000000	0.00000000000000	0.00000000000000	0.00000000000000	0.00000000000000	0.00000000000000	0.00000000000000	0.00000000000000	10.51679900000000	0.00000000000000	0.00000000000000	0.00000000000000	0.00000000000000	
8.01164100000000	-44.11830200000000	759.98240699999997	45.18545100000000	0.01589900000000	0.00000000000000	0.09405600000000	0.00000000000000	0.00000000000000	0.00000000000000	0.00000000000000	0.00000000000000	0.00000000000000	0.00000000000000	10.47678700000000	0.00000000000000	0.00000000000000	0.00000000000000	0.00000000000000	
8.01331000000000	-44.42367000000000	757.53793800000005	44.75766500000000	0.01521800000000	0.00000000000000	0.09398700000000	0.00000000000000	0.00000000000000	0.00000000000000	0.00000000000000	0.00000000000000	0.00000000000000	0.00000000000000	10.44234700000000	0.00000000000000	0.00000000000000	0.00000000000000	0.00000000000000	
8.01497100000000	-44.74986300000000	755.06669699999998	44.31624500000000	0.01453700000000	0.00000000000000	0.09391300000000	0.00000000000000	0.00000000000000	0.00000000000000	0.00000000000000	0.00000000000000	0.00000000000000	0.00000000000000	10.41358100000000	0.00000000000000	0.00000000000000	0.00000000000000	0.00000000000000	
8.01664400000000	-45.09740500000000	752.56881399999997	43.86157500000000	0.01385800000000	0.00000000000000	0.09383400000000	0.00000000000000	0.00000000000000	0.00000000000000	0.00000000000000	0.00000000000000	0.00000000000000	0.00000000000000	10.39057600000000	0.00000000000000	0.00000000000000	0.00000000000000	0.00000000000000	
8.01831000000000	-45.46677000000000	750.04421700000000	43.39404400000000	0.01317900000000	0.00000000000000	0.09375000000000	0.00000000000000	0.00000000000000	0.00000000000000	0.00000000000000	0.00000000000000	0.00000000000000	0.00000000000000	10.37340600000000	0.00000000000000	0.00000000000000	0.00000000000000	0.00000000000000	
8.01996900000000	-45.85837900000000	747.49263099999996	42.91405000000000	0.01250200000000	0.00000000000000	0.09366000000000	0.00000000000000	0.00000000000000	0.00000000000000	0.00000000000000	0.00000000000000	0.00000000000000	0.00000000000000	10.36213200000000	0.00000000000000	0.00000000000000	0.00000000000000	0.00000000000000	
8.02164400000000	-46.27259500000000	744.91356900000005	42.42199000000000	0.01182500000000	0.00000000000000	0.09356400000000	-1.89992800000000	3.45096400000000	0.62168800000000	0.00000000000000	0.00000000000000	0.00000000000000	0.00000000000000	10.35680000000000	0.00000000000000	0.00000000000000	0.00991400000000	0.00000000000000	
8.02330500000000	-46.70971800000000	742.30633499999999	41.91826700000000	0.01114900000000	0.00000000000000	0.09346400000000	-3.09947400000000	6.83528800000000	1.08091800000000	0.00000000000000	0.00000000000000	0.00000000000000	0.00000000000000	10.35744200000000	0.00000000000000	0.00000000000000	0.03771800000000	0.00000000000000	
8.02501300000000	-47.16998400000000	739.67001800000003	41.40328400000000	0.01047400000000	0.00000000000000	0.09335800000000	-4.46933300000000	10.94871900000000	1.61856600000000	0.00000000000000	0.00000000000000	0.00000000000000	0.00000000000000	10.36407500000000	0.00000000000000	0.00000000000000	0.07370000000000	0.00000000000000	
8.02664700000000	-47.65355900000000	737.00349500000004	40.87744600000000	0.00980100000000	0.00000000000000	0.09324600000000	-5.97202900000000	15.75402100000000	2.22375500000000	0.00000000000000	0.00000000000000	0.00000000000000	0.00000000000000	10.37670000000000	0.00000000000000	0.00000000000000	0.11809600000000	0.00000000000000	
8.02830200000000	-48.16053900000000	734.30542800000001	40.34115600000000	0.00912800000000	0.00000000000000	0.09312900000000	-7.55971600000000	21.18238400000000	2.88143500000000	0.00000000000000	0.00000000000000	0.00000000000000	0.00000000000000	10.39530300000000	0.00000000000000	0.00000000000000	0.17082800000000	0.00000000000000	
8.02998100000000	-48.69094300000000	731.57426599999997	39.79481600000000	0.00845700000000	0.00000000000000	0.09300700000000	-9.17734300000000	27.13864300000000	3.57338200000000	0.25095100000000	0.00000000000000	-0.06163400000000	0.00000000000000	10.41985200000000	0.00000000000000	0.00000000000000	0.56262000000000	0.00000000000000	
8.03164300000000	-49.24471300000000	728.80824600000005	39.23882700000000	0.00778700000000	0.00000000000000	0.09288000000000	-10.76672200000000	33.50929600000000	4.27956100000000	0.25679100000000	0.00000000000000	-0.06145400000000	0.00000000000000	10.45030200000000	0.00000000000000	0.00000000000000	0.73679900000000	0.00000000000000	
8.03330700000000	-49.82170800000000	726.00540100000001	38.67358700000000	0.00711800000000	0.00000000000000	0.09274700000000	-12.27095900000000	40.17226600000000	4.97967800000000	0.26189300000000	0.00000000000000	-0.06130800000000	0.00000000000000	10.48658900000000	0.00000000000000	0.00000000000000	0.92575900000000	0.00000000000000	
8.03497200000000	-50.42170500000000	723.16355799999997	38.09948900000000	0.00645100000000	0.00000000000000	0.09260900000000	-13.63866300000000	47.00701300000000	5.65469700000000	0.26638500000000	0.00000000000000	-0.06119100000000	0.00000000000000	10.52863300000000	0.00000000000000	0.00000000000000	1.12552100000000	0.00000000000000	
8.03664000000000	-51.04439200000000	720.28034600000001	37.51692300000000	0.00578500000000	0.00000000000000	0.09246600000000	-14.82737000000000	53.90364000000000	6.28812600000000	0.27036500000000	0.00000000000000	-0.06109800000000	0.00000000000000	10.57633800000000	0.00000000000000	0.00000000000000	1.33208400000000	0.00000000000000	
8.03830200000000	-51.68937100000000	717.35320100000001	36.92627700000000	0.00512100000000	0.00000000000000	0.09231800000000	-15.80586600000000	60.77002800000000	6.86695600000000	0.27391200000000	0.00000000000000	-0.06102600000000	0.00000000000000	10.62959000000000	0.00000000000000	0.00000000000000	1.54168700000000	0.00000000000000	
8.03998300000000	-52.35614800000000	714.37937399999998	36.32793100000000	0.00445800000000	0.00000000000000	0.09216400000000	-16.55527400000000	67.53648200000001	7.38217200000000	0.27709000000000	0.00000000000000	-0.06097100000000	0.00000000000000	10.68825700000000	0.00000000000000	0.00000000000000	1.75101900000000	0.00000000000000	
8.04163900000000	-53.04414100000000	711.35593700000004	35.72226100000000	0.00379700000000	0.00000000000000	0.09200600000000	-17.06897400000000	74.15781800000001	7.82886800000000	0.27995000000000	0.00000000000000	-0.06093100000000	0.00000000000000	10.75219100000000	0.00000000000000	0.00000000000000	1.95735500000000	0.00000000000000	
8.04330300000000	-53.75266900000000	708.27979500000004	35.10964200000000	0.00313700000000	0.00000000000000	0.09184400000000	-17.35152800000000	80.61307900000000	8.20600000000000	0.28253300000000	0.00000000000000	-0.06090500000000	0.00000000000000	10.82122700000000	0.00000000000000	0.00000000000000	2.15862300000000	0.00000000000000	
8.04496900000000	-54.48095700000000	705.14769000000001	34.49043900000000	0.00248000000000	0.00000000000000	0.09167600000000	-17.41687200000000	86.90331200000000	8.51586600000000	0.28487300000000	0.00000000000000	-0.06089000000000	0.00000000000000	10.89518200000000	0.00000000000000	0.00000000000000	2.35340400000000	0.00000000000000	
8.04663700000000	-55.22813100000000	701.95621700000004	33.86501500000000	0.00182400000000	0.00000000000000	0.09150400000000	-17.28604700000000	93.04791899999999	8.76339800000000	0.28700100000000	0.00000000000000	-0.06088600000000	0.00000000000000	10.97385500000000	0.00000000000000	0.00000000000000	2.54088000000000	0.00000000000000	
